<svg xmlns="http://www.w3.org/2000/svg" width="38" height="45" viewBox="0 0 38 45">
  <g id="Group_92" data-name="Group 92" transform="translate(-841.8 -873.356)">
    <path id="Union_2" data-name="Union 2" d="M14.636,12.334C6.246,11.686,0,9.208,0,6.25,0,2.8,8.506,0,19,0S38,2.8,38,6.25c0,2.958-6.247,5.435-14.636,6.084L19,15Z" transform="translate(841.8 903.356)" fill="rgba(0,0,0,0.2)"/>
    <path id="Union_1" data-name="Union 1" d="M14.636,37A18.81,18.81,0,0,1,0,18.751,18.876,18.876,0,0,1,19,0,18.877,18.877,0,0,1,38,18.751,18.812,18.812,0,0,1,23.364,37L19,45Z" transform="translate(841.8 873.356)" fill="#be58a2"/>
    <g id="Group_91" data-name="Group 91" transform="translate(846.466 877.09)">
      <path id="Path_101" data-name="Path 101" d="M220.318,1165.527a14.6,14.6,0,1,1,14.6-14.6A14.6,14.6,0,0,1,220.318,1165.527Zm0-28.351a13.753,13.753,0,1,0,13.753,13.753A13.753,13.753,0,0,0,220.318,1137.176Z" transform="translate(-205.72 -1136.33)" fill="#fff"/>
      <path id="Path_102" data-name="Path 102" d="M231.674,1148.9a7.4,7.4,0,0,1-.33,2.072,1.154,1.154,0,0,1-.846-.047,2.817,2.817,0,0,1-1.18-1.412l-.824.216a3.742,3.742,0,0,0,1.657,1.962,1.961,1.961,0,0,0,.727.173h.1a6.57,6.57,0,0,1-1.645,2.2c-2.228.064-3.179-3.044-3.353-3.678l-.816.215a9.029,9.029,0,0,0,.875,2.114,4.2,4.2,0,0,0,2.317,2.051,9.151,9.151,0,0,1-2.258.972,6.629,6.629,0,0,1-3.412-4.494l-.816.216a7.62,7.62,0,0,0,5.564,5.728l.63-.689s-.676-.207-.812-.254a7.835,7.835,0,0,0,4.65-4.363,8.06,8.06,0,0,0,.609-3.222Z" transform="translate(-215.042 -1143.448)" fill="#fff"/>
      <path id="Path_103" data-name="Path 103" d="M233.342,1167.727l.423-.262c.2-.123.389-.237.566-.355s.4-.25.609-.381c1.268-.774,2.845-1.733,2.114-3.555l-.139-.364-2.959.879a2.982,2.982,0,0,1-1.547.123,4.623,4.623,0,0,0-1.725.127,4.012,4.012,0,0,0-2.325,1.514l-4.118-.643-.021.469a2.359,2.359,0,0,0,.846,1.865,3.12,3.12,0,0,0,2.651.334,3.026,3.026,0,0,0,.178,1.484,7.5,7.5,0,0,0,.423.774,9.387,9.387,0,0,1,1.459,5.2c-.072,3.019-3.213,4.57-3.243,4.587l.364.761c.148-.072,3.636-1.784,3.72-5.327a10.27,10.27,0,0,0-1.569-5.632,7.1,7.1,0,0,1-.355-.676,2.537,2.537,0,0,1,0-1.606l.228-.609-.947.241c-2.537.655-2.773-.761-2.773-.761h0a.441.441,0,0,0-.034-.106l3.137.49.655-.174a3.161,3.161,0,0,1,1.94-1.357,4.332,4.332,0,0,1,1.48-.106,3.919,3.919,0,0,0,1.725-.118l2.321-.689c.11.562-.182,1.108-1.9,2.156-.211.127-.423.262-.634.393s-.351.224-.545.343c-.3.186-.617.376-.926.592l-.461.326.423.351c.055.042,5.306,4.3,5.306,10.468h.846C238.53,1172.914,234.67,1168.932,233.342,1167.727Z" transform="translate(-216.398 -1151.615)" fill="#fff"/>
    </g>
  </g>
</svg>
