<svg width="194" height="76" viewBox="0 0 194 76" fill="none" xmlns="http://www.w3.org/2000/svg">
<g clip-path="url(#clip0)">
<path d="M92.7381 9.80892L91.1729 10.0678L92.6037 10.7532L147.033 36.8244H36.9568L93.2358 27.5155L94.801 27.2566L93.3702 26.5713L38.9408 0.5H149.017L92.7381 9.80892Z" fill="black" stroke="black"/>
<path fill-rule="evenodd" clip-rule="evenodd" d="M158.713 59.4487V63.3332H151.688V75.9998H146.337V63.3332H139.48V59.4487H158.713Z" fill="black"/>
<path fill-rule="evenodd" clip-rule="evenodd" d="M81.9482 69.5821L78.7706 63.6709L75.593 69.5821H81.9482ZM83.7878 73.1287L85.293 75.9998H90.9792L82.1154 59.4487H75.4257L66.562 75.9998H72.2482L73.7533 73.1287H83.7878Z" fill="black"/>
<path fill-rule="evenodd" clip-rule="evenodd" d="M110.379 63.5021H118.073C120.748 63.5021 120.748 67.0487 118.073 67.0487H110.379V63.5021ZM105.362 59.4487H118.574C122.421 59.4487 124.762 60.6309 124.762 65.1909C124.762 68.9065 123.09 70.4265 120.247 70.7643L126.1 75.9998H120.414L114.895 70.9332H110.379V75.9998H105.362V59.4487Z" fill="black"/>
<path fill-rule="evenodd" clip-rule="evenodd" d="M36.6263 59.4487H49.8383C53.6849 59.4487 56.0263 60.6309 56.0263 65.1909C56.0263 69.7509 53.5176 70.9332 49.6711 70.9332H41.6435V75.9998H36.6263V59.4487ZM41.6435 66.8798H49.1694C51.8452 66.8798 51.8452 63.3332 49.1694 63.3332H41.6435V66.8798Z" fill="black"/>
<path fill-rule="evenodd" clip-rule="evenodd" d="M16.2223 66.0354L7.02399 65.6976C6.02054 65.6976 4.84985 65.5287 4.84985 64.3465C4.84985 63.1643 5.8533 62.9954 6.85675 62.9954C7.19123 62.9954 11.3723 62.9954 19.3999 62.9954V59.4487C11.205 59.4487 6.02054 59.4487 4.01365 59.4487C0.836059 59.4487 -0.167389 61.6443 -0.167389 64.5154C-0.000147543 67.3865 1.17054 69.2443 4.01365 69.2443L13.3792 69.7509C14.2154 69.7509 15.2188 70.0887 15.2188 71.1021C15.2188 72.2843 14.0481 72.4532 13.0447 72.4532H0.501577V75.9998H15.2188C18.5636 75.9998 20.2361 74.3109 20.2361 70.9332C20.2361 68.3998 19.2326 66.2043 16.2223 66.0354Z" fill="black"/>
<path fill-rule="evenodd" clip-rule="evenodd" d="M184.969 69.5821L181.791 63.6709L178.614 69.5821H184.969ZM186.976 73.1287L188.481 75.9998H194.167L185.303 59.4487H178.614L169.75 75.9998H175.436L176.941 73.1287H186.976Z" fill="black"/>
</g>
<defs>
<clipPath id="clip0">
<rect width="194" height="76" fill="white"/>
</clipPath>
</defs>
</svg>
