<svg width="135" height="88" viewBox="0 0 135 88" fill="none" xmlns="http://www.w3.org/2000/svg">
<path d="M13.3157 75.4555C13.3244 76.0244 13.1645 76.5832 12.8561 77.0614C12.7053 77.2966 12.5273 77.5133 12.3259 77.7069C12.1006 77.922 11.8619 78.1227 11.6114 78.3079C12.0094 78.4817 12.3902 78.6926 12.7486 78.9378C13.1042 79.1834 13.418 79.4844 13.6784 79.8293C13.9562 80.2035 14.1692 80.6217 14.3083 81.0666C14.4712 81.6071 14.5489 82.1696 14.5388 82.734C14.5516 83.39 14.4207 84.0409 14.1552 84.6409C13.8897 85.2409 13.4962 85.7755 13.0021 86.2072C12.5145 86.6264 11.9503 86.9473 11.3407 87.1521C10.693 87.3747 10.0123 87.4864 9.32748 87.4826H1.17544C1.03107 87.4872 0.889679 87.4409 0.775988 87.3518C0.72465 87.3089 0.684024 87.2546 0.657332 87.1932C0.630639 87.1318 0.618616 87.0651 0.622217 86.9983V72.1609C0.61595 72.0882 0.626724 72.0151 0.653686 71.9473C0.680647 71.8796 0.723049 71.819 0.77752 71.7705C0.831991 71.722 0.897028 71.6869 0.967458 71.6679C1.03789 71.649 1.11177 71.6468 1.18322 71.6614H8.49817C9.14013 71.6561 9.77945 71.7441 10.3961 71.9226C10.9502 72.0847 11.4707 72.345 11.9328 72.6911C12.3576 73.0073 12.7067 73.4141 12.9547 73.8821C13.2034 74.3692 13.3275 74.9104 13.316 75.4573L13.3157 75.4555ZM11.3177 75.4555C11.3235 75.1433 11.2522 74.8346 11.1102 74.5566C10.9699 74.2957 10.7698 74.0718 10.5262 73.9033C10.2536 73.716 9.9489 73.5806 9.62725 73.5038C9.25014 73.4119 8.86295 73.368 8.47484 73.373H2.58908V77.7299H8.46707C8.85109 77.7345 9.23387 77.6854 9.60427 77.5839C9.92835 77.4946 10.2331 77.3461 10.5032 77.1459C10.7527 76.9594 10.9553 76.7174 11.095 76.4389C11.2455 76.1358 11.3218 75.8013 11.3177 75.4629V75.4555ZM2.59651 79.4203V85.7596H9.30451C9.70953 85.76 10.1127 85.7056 10.5032 85.5981C10.8811 85.4968 11.2341 85.319 11.5404 85.0756C11.864 84.8283 12.1269 84.5103 12.3089 84.1459C12.5059 83.7068 12.6005 83.2285 12.5853 82.7474C12.5969 82.25 12.5053 81.7556 12.3163 81.2953C12.15 80.9033 11.9041 80.5501 11.5941 80.2581C11.295 79.9813 10.9419 79.7694 10.557 79.6356C10.1671 79.4978 9.75654 79.4276 9.34304 79.4281H2.63539L2.59651 79.4203Z" fill="black"/>
<path d="M37.4658 71.6824C37.5361 71.6663 37.6092 71.6669 37.6793 71.6843C37.7493 71.7016 37.8142 71.7353 37.8688 71.7824C37.9235 71.8295 37.9662 71.8888 37.9937 71.9555C38.0211 72.0223 38.0325 72.0945 38.0268 72.1664V72.9349C38.0267 72.9994 38.0138 73.0631 37.9887 73.1225C37.9636 73.1819 37.9269 73.2356 37.8808 73.2806C37.8237 73.3325 37.7566 73.3721 37.6837 73.3972C37.6108 73.4223 37.5335 73.4323 37.4566 73.4266H27.2539V80.5726H35.3844C35.5191 80.5687 35.6514 80.6092 35.7609 80.6879C35.8159 80.7315 35.8594 80.788 35.8875 80.8523C35.9157 80.9166 35.9277 80.9869 35.9224 81.0569V81.8254C35.9222 81.9518 35.8726 82.0731 35.7842 82.1633C35.7327 82.2138 35.6712 82.2528 35.6037 82.278C35.5362 82.3031 35.4641 82.3138 35.3922 82.3093H27.2539V85.7902H37.604C37.6732 85.7769 37.7446 85.7796 37.8126 85.7983C37.8806 85.8169 37.9433 85.8509 37.9961 85.8977C38.0488 85.9445 38.0901 86.0028 38.1167 86.0681C38.1433 86.1333 38.1545 86.2039 38.1495 86.2742V87.0427C38.1522 87.1068 38.1413 87.1708 38.1175 87.2304C38.0936 87.29 38.0574 87.3438 38.0113 87.3884C37.9028 87.4818 37.762 87.5288 37.6192 87.5192H25.8095C25.743 87.5337 25.6739 87.5325 25.6079 87.5157C25.5419 87.4989 25.4808 87.4669 25.4293 87.4223C25.3778 87.3777 25.3374 87.3216 25.3114 87.2587C25.2854 87.1957 25.2744 87.1276 25.2793 87.0596V72.1915C25.2754 72.1261 25.2857 72.0606 25.3096 71.9996C25.3335 71.9385 25.3703 71.8834 25.4175 71.838C25.5263 71.7455 25.6666 71.6986 25.8092 71.7072H37.4655L37.4658 71.6824Z" fill="black"/>
<path d="M53.479 71.6748C54.1208 71.6728 54.7606 71.7475 55.3847 71.8975C55.9854 72.0413 56.5679 72.2526 57.1211 72.5274C57.6561 72.7934 58.1567 73.1237 58.6118 73.5108C59.0534 73.8885 59.4434 74.3226 59.772 74.8018C60.1018 75.274 60.3607 75.7917 60.5405 76.3388C60.9822 77.7297 60.8722 79.2373 60.2333 80.5493C59.8606 81.3251 59.3384 82.0197 58.6966 82.5933C58.0165 83.1875 57.2359 83.656 56.3915 83.9765C55.4837 84.3225 54.5197 84.497 53.5483 84.4912H50.8359V87.0039C50.841 87.074 50.8298 87.1442 50.8031 87.2092C50.7764 87.2742 50.735 87.3321 50.6821 87.3783C50.6292 87.4245 50.5663 87.4578 50.4983 87.4755C50.4303 87.4932 50.3592 87.4949 50.2904 87.4804H49.3993C49.3311 87.4935 49.2608 87.4908 49.1939 87.4724C49.1269 87.4541 49.0651 87.4206 49.0131 87.3745C48.9611 87.3285 48.9205 87.2711 48.8942 87.2068C48.8679 87.1426 48.8568 87.0732 48.8616 87.0039V72.1665C48.8553 72.0938 48.8661 72.0207 48.8931 71.9529C48.92 71.8852 48.9624 71.8246 49.0169 71.7761C49.0714 71.7276 49.1364 71.6925 49.2068 71.6736C49.2773 71.6546 49.3511 71.6524 49.4226 71.667H53.5405L53.479 71.6748ZM50.7744 82.77H53.4946C54.1863 82.7734 54.8731 82.6537 55.5229 82.4165C56.1463 82.1915 56.7242 81.8563 57.2289 81.4268C57.7152 81.0123 58.1147 80.5056 58.4043 79.936C58.6913 79.3582 58.8406 78.7218 58.8406 78.0766C58.8406 77.4315 58.6913 76.795 58.4043 76.2172C58.1129 75.6445 57.7076 75.1373 57.2134 74.7265C56.6883 74.291 56.0898 73.9527 55.4459 73.7275C54.7576 73.4841 54.0323 73.362 53.3023 73.3666H50.7744V82.7714V82.77Z" fill="black"/>
<path d="M83.6232 71.6824C83.6935 71.6663 83.7666 71.6669 83.8366 71.6843C83.9066 71.7016 83.9716 71.7353 84.0262 71.7824C84.0808 71.8295 84.1236 71.8888 84.151 71.9555C84.1785 72.0223 84.1898 72.0945 84.1842 72.1664V72.9349C84.1841 72.9994 84.1711 73.0631 84.146 73.1225C84.121 73.1819 84.0843 73.2356 84.0382 73.2806C83.9811 73.3325 83.914 73.3721 83.8411 73.3972C83.7681 73.4223 83.6909 73.4323 83.614 73.4266H73.4113V80.5726H81.5418C81.6765 80.5687 81.8088 80.6092 81.9182 80.6879C81.9732 80.7315 82.0166 80.788 82.0447 80.8523C82.0728 80.9167 82.0847 80.9869 82.0794 81.0569V81.8254C82.0792 81.9518 82.0296 82.073 81.9412 82.1633C81.8897 82.2138 81.8282 82.2528 81.7607 82.278C81.6932 82.3031 81.6211 82.3138 81.5492 82.3093H73.4113V85.7902H83.7076C83.7769 85.7769 83.8482 85.7796 83.9162 85.7983C83.9842 85.8169 84.047 85.8509 84.0997 85.8977C84.1524 85.9445 84.1937 86.0028 84.2203 86.0681C84.2469 86.1333 84.2581 86.2039 84.2531 86.2742V87.0427C84.2558 87.1068 84.2449 87.1708 84.2211 87.2304C84.1973 87.29 84.1611 87.3438 84.1149 87.3884C84.0065 87.4817 83.8659 87.5287 83.7232 87.5192H71.9669C71.9003 87.5337 71.8313 87.5325 71.7653 87.5157C71.6993 87.4989 71.6381 87.4669 71.5866 87.4223C71.5351 87.3777 71.4948 87.3216 71.4687 87.2587C71.4427 87.1957 71.4317 87.1276 71.4366 87.0596V72.1915C71.4327 72.1261 71.4431 72.0606 71.4669 71.9996C71.4908 71.9385 71.5276 71.8834 71.5749 71.838C71.6836 71.7455 71.824 71.6986 71.9665 71.7072H83.6228L83.6232 71.6824Z" fill="black"/>
<path d="M108.726 86.0877C107.911 86.5991 107.033 87.0021 106.113 87.2864C105.165 87.5774 104.178 87.7226 103.186 87.717C101.559 87.7228 99.9552 87.3409 98.5061 86.6028C97.8303 86.2583 97.2008 85.8298 96.6326 85.3273C96.0832 84.8428 95.5978 84.2902 95.1882 83.6829C94.7864 83.0858 94.4733 82.4336 94.2585 81.7468C93.8226 80.343 93.8226 78.84 94.2585 77.4362C94.4734 76.7493 94.7866 76.0971 95.1882 75.4997C95.598 74.8926 96.0833 74.3399 96.6326 73.8552C97.2008 73.3527 97.8303 72.9242 98.5061 72.5798C99.9552 71.8416 101.559 71.4597 103.186 71.4656C104.178 71.46 105.165 71.6051 106.113 71.8961C107.032 72.1808 107.911 72.5837 108.726 73.0948C108.801 73.1309 108.865 73.186 108.913 73.2548C108.96 73.3235 108.988 73.4034 108.995 73.4865C108.996 73.552 108.977 73.6162 108.941 73.6707L108.826 73.8323L108.442 74.4085C108.394 74.4767 108.331 74.532 108.257 74.5696C108.191 74.6069 108.117 74.628 108.042 74.6312H107.85C107.746 74.6076 107.647 74.5659 107.558 74.5082C106.94 74.1136 106.274 73.8011 105.575 73.5785C104.868 73.3522 104.129 73.2382 103.385 73.2405C102.7 73.2362 102.016 73.3135 101.349 73.471C100.726 73.6191 100.122 73.8409 99.5514 74.1317C99.0001 74.4066 98.4841 74.7473 98.0148 75.1462C97.5732 75.5239 97.1831 75.9579 96.8546 76.4372C96.5249 76.9094 96.266 77.4272 96.0861 77.9742C95.9131 78.5026 95.8249 79.055 95.8248 79.6109C95.8236 80.4559 96.0182 81.2897 96.3933 82.0469C96.7654 82.8208 97.2878 83.5129 97.9299 84.083C98.6339 84.6878 99.4407 85.1614 100.312 85.4815C101.263 85.8357 102.271 86.0128 103.285 86.0039C104.026 86.0064 104.762 85.8923 105.468 85.666C106.168 85.4413 106.836 85.1289 107.458 84.7363C107.547 84.6787 107.646 84.6371 107.75 84.6133H107.942C108.017 84.6165 108.091 84.6375 108.157 84.6748C108.231 84.7124 108.294 84.768 108.342 84.8363L108.726 85.4126L108.841 85.5741C108.877 85.6287 108.896 85.6931 108.895 85.7586C108.89 85.822 108.873 85.8837 108.843 85.9403C108.814 85.9968 108.774 86.0469 108.726 86.0877Z" fill="black"/>
<path d="M121.543 78.5903L128.628 72.0054C128.724 71.9189 128.827 71.8393 128.935 71.7671C129.014 71.7109 129.107 71.6789 129.204 71.6749H131.217L131.348 71.7286C131.364 71.7367 131.377 71.7488 131.386 71.7636C131.396 71.7784 131.401 71.7955 131.402 71.8131C131.398 71.8407 131.389 71.8674 131.374 71.8912C131.36 71.915 131.34 71.9354 131.317 71.9513L126.899 76.0547L134.237 86.812C134.271 86.8694 134.297 86.9316 134.313 86.9966C134.333 87.0643 134.333 87.1363 134.313 87.2041C134.292 87.2722 134.248 87.3315 134.19 87.3731C134.11 87.4246 134.016 87.4494 133.921 87.4437H132.677C132.584 87.4421 132.495 87.4096 132.423 87.3515C132.338 87.2854 132.265 87.2047 132.208 87.1132L125.5 77.3566L121.535 81.0451V86.9771C121.538 87.0478 121.525 87.1183 121.496 87.183C121.468 87.2478 121.425 87.305 121.371 87.3504C121.316 87.3958 121.252 87.428 121.183 87.4446C121.115 87.4611 121.043 87.4615 120.974 87.4459H120.098C120.03 87.4604 119.96 87.4589 119.893 87.4416C119.826 87.4243 119.764 87.3917 119.712 87.3462C119.66 87.3008 119.619 87.2438 119.592 87.1798C119.566 87.1158 119.555 87.0465 119.56 86.9775V72.0952C119.559 72.0342 119.57 71.9735 119.592 71.9168C119.615 71.86 119.648 71.8083 119.691 71.7646C119.745 71.7157 119.808 71.6783 119.876 71.6544C119.945 71.6306 120.018 71.621 120.09 71.6261H120.981C121.121 71.6244 121.256 71.6705 121.366 71.7569C121.418 71.7962 121.459 71.8474 121.487 71.9062C121.515 71.965 121.529 72.0297 121.527 72.0948V78.5349L121.543 78.5903Z" fill="black"/>
<path fill-rule="evenodd" clip-rule="evenodd" d="M57.9479 51.9792C55.3947 51.2256 52.9555 50.088 50.718 48.5929C46.3548 45.6775 42.9541 41.5338 40.9459 36.6856C38.9378 31.8375 38.4123 26.5028 39.4361 21.356C40.4598 16.2093 42.9868 11.4817 46.6974 7.77109C50.408 4.0605 55.1356 1.53357 60.2823 0.509821C65.4291 -0.513931 70.7638 0.0114961 75.6119 2.01966C80.4601 4.02782 84.6038 7.42851 87.5192 11.7917C90.4346 16.1549 91.9907 21.2846 91.9907 26.5322C91.9907 33.569 89.1954 40.3176 84.2196 45.2933C79.2439 50.2691 72.4953 53.0644 65.4585 53.0644C62.9679 53.0644 60.5038 52.7139 58.1357 52.0339C58.0679 52.069 58.0232 52.0908 58.0053 52.0995L57.9479 51.9792ZM57.9503 50.3738C54.1275 49.17 50.6367 47.0599 47.784 44.2071C44.2883 40.7114 41.9077 36.2576 40.9432 31.409C39.9788 26.5603 40.4738 21.5345 42.3656 16.9672C44.2575 12.3999 47.4612 8.49607 51.5717 5.74952C55.6822 3.00297 60.5148 1.53701 65.4585 1.53701C72.0877 1.53701 78.4454 4.17046 83.133 8.85804C87.8206 13.5456 90.4541 19.9033 90.4541 26.5326C90.4541 31.4762 88.9881 36.3089 86.2415 40.4194C84.3563 43.2408 81.9259 45.635 79.1099 47.471C78.5279 38.0682 72.0273 31.3743 69.7235 29.2829L70.492 28.8067C70.5726 28.757 70.6524 28.708 70.7313 28.6596C71.0063 28.4909 71.271 28.3285 71.5217 28.1612C71.753 28.007 72.0235 27.8412 72.2997 27.6719C72.409 27.6049 72.5192 27.5373 72.6282 27.4698L72.6353 27.4654C74.9393 26.06 77.7981 24.316 76.47 21.0075L76.2166 20.3468L70.8377 21.945C69.9365 22.2663 68.9662 22.3431 68.0256 22.1677C66.9754 22.0465 65.9117 22.1247 64.8904 22.3982C63.9217 22.619 63.0163 23.0334 62.2247 23.6086C61.8415 23.4906 61.2719 23.3144 61.1131 23.2607C62.9992 22.6055 64.7264 21.5609 66.1825 20.1948C67.6387 18.8286 68.7912 17.1715 69.5653 15.331C70.3314 13.4758 70.708 11.4829 70.6717 9.47604L69.1545 9.90445C69.134 11.1817 68.9317 12.4494 68.5536 13.6696C68.0491 13.837 67.4999 13.8067 67.0169 13.5847C66.0352 12.9934 65.2803 12.0897 64.8733 11.0183L63.3748 11.4104C63.6516 12.0944 64.6121 14.1765 66.387 14.9758C66.8033 15.1645 67.252 15.2714 67.7087 15.2907H67.8855C67.1825 16.8209 66.1638 18.1851 64.8963 19.2937C60.8469 19.409 59.118 13.7615 58.803 12.6091L57.3183 13.0011C57.6836 14.344 58.2181 15.6349 58.9091 16.8429C59.7877 18.5754 61.2935 19.908 63.1199 20.5695C61.838 21.3407 60.4579 21.9352 59.0169 22.337C57.4461 21.5156 56.0759 20.3576 55.0041 18.9457C53.9323 17.5339 53.1852 15.9029 52.8161 14.1691L51.3315 14.5611C51.6082 15.9673 53.2562 22.3177 60.9302 24.8143C60.8383 24.9236 60.7494 25.0358 60.6637 25.1509L53.1797 23.9843L53.1412 24.8373C53.1263 25.4813 53.2568 26.1203 53.5228 26.707C53.7888 27.2936 54.1836 27.8128 54.6779 28.2259C55.8091 29.0941 57.421 29.2939 59.4957 28.8329C59.3762 29.7447 59.4871 30.6719 59.8184 31.5297C60.047 32.013 60.3036 32.4826 60.5869 32.9359C62.3762 35.7563 63.298 39.0398 63.2382 42.3793C63.1332 46.7835 59.4335 49.47 57.9503 50.3738ZM59.9194 50.9067C60.1394 50.9567 60.3603 51.0037 60.5821 51.0478C65.4308 52.0123 70.4565 51.5173 75.0239 49.6255C75.9122 49.2575 76.7755 48.8399 77.61 48.3757C77.3626 37.3988 68.0706 29.8722 67.9719 29.7965L67.2034 29.1602L68.0422 28.572C68.5869 28.1914 69.1386 27.8544 69.6766 27.5258L69.7249 27.4963C69.9211 27.3768 70.0862 27.2716 70.2599 27.1609C70.3991 27.0721 70.5439 26.9798 70.7147 26.8738C70.8404 26.7958 70.9662 26.7169 71.092 26.638C71.3503 26.476 71.6087 26.314 71.8671 26.159C74.9941 24.2551 75.5244 23.2621 75.3247 22.2401L71.1064 23.4926C70.0904 23.7969 69.0192 23.8704 67.9712 23.7079C67.0703 23.6166 66.1605 23.6815 65.2818 23.8998C63.8311 24.2341 62.5668 25.1183 61.7549 26.3662L60.564 26.6815L54.8627 25.79C54.8912 25.8511 54.9119 25.9156 54.9242 25.9819C54.9242 25.9819 55.3545 28.5561 59.9648 27.3651L61.686 26.9272L61.271 28.0336C60.9546 28.9812 60.9546 30.0059 61.271 30.9535C61.4639 31.3746 61.6794 31.785 61.9165 32.183C63.8381 35.2464 64.8284 38.8021 64.7671 42.4178C64.6659 46.6559 61.8852 49.4526 59.9194 50.9067Z" fill="black"/>
</svg>
