<svg width="327" height="214" viewBox="0 0 327 214" fill="none" xmlns="http://www.w3.org/2000/svg">
<path d="M30.972 184.086C30.9933 185.474 30.6032 186.837 29.8508 188.004C29.4828 188.578 29.0487 189.106 28.5572 189.579C28.0075 190.104 27.4254 190.593 26.8142 191.045C27.7852 191.469 28.7141 191.983 29.5886 192.582C30.456 193.181 31.2217 193.915 31.8568 194.757C32.5347 195.669 33.0543 196.69 33.3936 197.775C33.791 199.094 33.9807 200.466 33.9559 201.843C33.9872 203.444 33.6678 205.031 33.0202 206.495C32.3725 207.959 31.4123 209.263 30.207 210.316C29.0173 211.339 27.6409 212.122 26.1536 212.622C24.5734 213.165 22.913 213.437 21.2421 213.428H1.35392C1.0017 213.439 0.656746 213.326 0.37938 213.109C0.254132 213.004 0.155019 212.872 0.0898979 212.722C0.0247772 212.572 -0.00455616 212.41 0.0042298 212.247V176.048C-0.0110588 175.871 0.0152261 175.693 0.0810021 175.527C0.146778 175.362 0.250226 175.214 0.383117 175.096C0.516008 174.978 0.674677 174.892 0.846501 174.846C1.01833 174.799 1.19857 174.794 1.37289 174.83H19.2189C20.7851 174.817 22.3448 175.031 23.8492 175.467C25.2011 175.862 26.4709 176.497 27.5982 177.342C28.6346 178.113 29.4863 179.106 30.0914 180.247C30.698 181.436 31.0008 182.756 30.9728 184.09L30.972 184.086ZM26.0976 184.086C26.1118 183.324 25.9379 182.571 25.5913 181.893C25.2491 181.257 24.7608 180.71 24.1666 180.299C23.5017 179.842 22.7582 179.512 21.9735 179.325C21.0535 179.1 20.1088 178.993 19.162 179.006H4.80272V189.635H19.143C20.0799 189.646 21.0138 189.526 21.9174 189.279C22.7081 189.061 23.4516 188.698 24.1105 188.21C24.7192 187.755 25.2135 187.165 25.5542 186.485C25.9214 185.746 26.1077 184.93 26.0976 184.104V184.086ZM4.82083 193.759V209.225H21.1861C22.1742 209.225 23.1579 209.093 24.1105 208.831C25.0324 208.583 25.8937 208.15 26.6409 207.556C27.4305 206.952 28.0718 206.177 28.5158 205.288C28.9965 204.216 29.2271 203.05 29.1902 201.876C29.2184 200.662 28.9949 199.456 28.5339 198.333C28.1282 197.377 27.5282 196.515 26.772 195.803C26.0422 195.128 25.1807 194.611 24.2416 194.284C23.2905 193.948 22.2889 193.777 21.2801 193.778H4.9157L4.82083 193.759Z" fill="#717171"/>
<path d="M89.8901 174.881C90.0617 174.841 90.24 174.843 90.4109 174.885C90.5817 174.928 90.7401 175.01 90.8734 175.125C91.0067 175.24 91.111 175.384 91.1779 175.547C91.2449 175.71 91.2726 175.886 91.2588 176.061V177.936C91.2586 178.094 91.2269 178.249 91.1658 178.394C91.1046 178.539 91.0151 178.67 90.9026 178.78C90.7633 178.906 90.5997 179.003 90.4218 179.064C90.2438 179.126 90.0553 179.15 89.8677 179.136H64.9766V196.57H84.8122C85.1409 196.56 85.4637 196.659 85.7307 196.851C85.8649 196.957 85.9709 197.095 86.0396 197.252C86.1083 197.409 86.1376 197.58 86.1248 197.751V199.626C86.1244 199.935 86.0033 200.23 85.7876 200.451C85.662 200.574 85.512 200.669 85.3472 200.73C85.1825 200.792 85.0067 200.818 84.8312 200.807H64.9766V209.299H90.2273C90.3962 209.266 90.5703 209.273 90.7361 209.319C90.902 209.364 91.0552 209.447 91.1838 209.561C91.3124 209.675 91.4131 209.818 91.478 209.977C91.5429 210.136 91.5703 210.308 91.558 210.48V212.355C91.5647 212.511 91.5381 212.667 91.48 212.813C91.4218 212.958 91.3335 213.089 91.2208 213.198C90.9563 213.426 90.6128 213.541 90.2644 213.517H61.4527C61.2904 213.553 61.122 213.55 60.9609 213.509C60.7999 213.468 60.6506 213.39 60.525 213.281C60.3994 213.172 60.301 213.035 60.2374 212.882C60.1739 212.728 60.1471 212.562 60.1591 212.396V176.123C60.1496 175.963 60.1748 175.803 60.2331 175.654C60.2913 175.506 60.3811 175.371 60.4963 175.26C60.7617 175.035 61.1041 174.92 61.4519 174.941H89.8893L89.8901 174.881Z" fill="#717171"/>
<path d="M128.957 174.862C130.523 174.857 132.084 175.04 133.606 175.406C135.072 175.756 136.493 176.272 137.842 176.942C139.148 177.591 140.369 178.397 141.479 179.342C142.557 180.263 143.508 181.322 144.31 182.491C145.114 183.643 145.746 184.906 146.185 186.241C147.262 189.634 146.994 193.312 145.435 196.513C144.526 198.406 143.252 200.1 141.686 201.5C140.027 202.95 138.123 204.092 136.062 204.874C133.848 205.718 131.496 206.144 129.126 206.13H122.509V212.26C122.521 212.431 122.494 212.603 122.429 212.761C122.364 212.92 122.262 213.061 122.133 213.174C122.004 213.286 121.851 213.368 121.685 213.411C121.519 213.454 121.346 213.458 121.178 213.423H119.004C118.838 213.455 118.666 213.448 118.503 213.403C118.339 213.358 118.188 213.277 118.062 213.164C117.935 213.052 117.836 212.912 117.772 212.755C117.708 212.599 117.68 212.429 117.692 212.26V176.062C117.677 175.885 117.703 175.706 117.769 175.541C117.835 175.376 117.938 175.228 118.071 175.11C118.204 174.991 118.363 174.906 118.534 174.859C118.706 174.813 118.886 174.808 119.061 174.843H129.107L128.957 174.862ZM122.359 201.931H128.995C130.683 201.939 132.358 201.647 133.944 201.069C135.464 200.52 136.874 199.702 138.106 198.654C139.292 197.643 140.267 196.407 140.973 195.017C141.673 193.607 142.038 192.055 142.038 190.481C142.038 188.907 141.673 187.354 140.973 185.944C140.262 184.547 139.273 183.31 138.068 182.308C136.787 181.245 135.326 180.42 133.755 179.87C132.076 179.277 130.307 178.979 128.526 178.99H122.359V201.934V201.931Z" fill="#717171"/>
<path d="M202.499 174.881C202.67 174.841 202.849 174.843 203.019 174.885C203.19 174.928 203.349 175.01 203.482 175.125C203.615 175.24 203.719 175.384 203.786 175.547C203.853 175.71 203.881 175.886 203.867 176.061V177.936C203.867 178.094 203.835 178.249 203.774 178.394C203.713 178.539 203.624 178.67 203.511 178.78C203.372 178.906 203.208 179.003 203.03 179.064C202.852 179.126 202.664 179.15 202.476 179.136H177.585V196.57H197.421C197.749 196.56 198.072 196.659 198.339 196.851C198.473 196.958 198.579 197.095 198.648 197.252C198.716 197.409 198.745 197.58 198.732 197.751V199.626C198.732 199.934 198.611 200.23 198.395 200.451C198.27 200.574 198.12 200.669 197.955 200.73C197.79 200.792 197.614 200.818 197.439 200.807H177.585V209.299H202.705C202.874 209.266 203.048 209.273 203.214 209.319C203.379 209.364 203.533 209.447 203.661 209.561C203.79 209.675 203.89 209.818 203.955 209.977C204.02 210.136 204.048 210.308 204.035 210.48V212.355C204.042 212.511 204.015 212.667 203.957 212.813C203.899 212.958 203.811 213.089 203.698 213.198C203.434 213.426 203.091 213.54 202.743 213.517H174.061C173.899 213.553 173.73 213.55 173.569 213.509C173.408 213.468 173.259 213.39 173.133 213.281C173.008 213.172 172.909 213.035 172.846 212.882C172.782 212.728 172.756 212.562 172.768 212.396V176.123C172.758 175.963 172.783 175.803 172.842 175.654C172.9 175.506 172.99 175.371 173.105 175.26C173.37 175.035 173.713 174.92 174.06 174.941H202.498L202.499 174.881Z" fill="#717171"/>
<path d="M263.74 210.025C261.752 211.272 259.61 212.255 257.367 212.949C255.053 213.659 252.645 214.013 250.225 214C246.257 214.014 242.343 213.082 238.808 211.281C237.159 210.441 235.623 209.395 234.237 208.17C232.897 206.987 231.713 205.639 230.713 204.158C229.733 202.701 228.969 201.11 228.445 199.434C227.382 196.009 227.382 192.343 228.445 188.918C228.97 187.242 229.734 185.651 230.713 184.194C231.713 182.712 232.897 181.364 234.237 180.182C235.623 178.956 237.159 177.91 238.808 177.07C242.343 175.269 246.257 174.337 250.225 174.352C252.645 174.338 255.053 174.692 257.367 175.402C259.609 176.097 261.752 177.08 263.74 178.326C263.924 178.414 264.081 178.549 264.196 178.717C264.312 178.884 264.381 179.079 264.397 179.282C264.4 179.442 264.354 179.598 264.266 179.731L263.985 180.126L263.047 181.531C262.932 181.698 262.777 181.833 262.597 181.925C262.436 182.015 262.256 182.067 262.072 182.075H261.603C261.35 182.017 261.109 181.915 260.891 181.774C259.384 180.812 257.758 180.05 256.055 179.506C254.328 178.954 252.525 178.676 250.712 178.682C249.04 178.671 247.372 178.86 245.744 179.244C244.223 179.605 242.751 180.147 241.358 180.856C240.013 181.527 238.754 182.358 237.609 183.331C236.532 184.253 235.58 185.311 234.779 186.481C233.974 187.633 233.343 188.896 232.904 190.231C232.482 191.52 232.267 192.867 232.267 194.224C232.264 196.285 232.738 198.319 233.653 200.166C234.561 202.054 235.836 203.743 237.402 205.134C239.12 206.609 241.088 207.765 243.213 208.546C245.533 209.41 247.992 209.842 250.468 209.82C252.275 209.826 254.071 209.548 255.792 208.996C257.499 208.448 259.131 207.686 260.647 206.728C260.865 206.587 261.106 206.486 261.359 206.428H261.828C262.012 206.435 262.192 206.487 262.353 206.578C262.533 206.67 262.688 206.805 262.803 206.972L263.74 208.378L264.022 208.772C264.11 208.905 264.156 209.062 264.153 209.222C264.141 209.376 264.098 209.527 264.028 209.665C263.957 209.803 263.859 209.925 263.74 210.025Z" fill="#717171"/>
<path d="M295.011 191.734L312.294 175.669C312.531 175.458 312.781 175.264 313.045 175.088C313.237 174.95 313.465 174.872 313.701 174.862H318.612L318.932 174.994C318.97 175.013 319.002 175.043 319.025 175.079C319.048 175.115 319.061 175.157 319.063 175.2C319.054 175.267 319.031 175.332 318.995 175.39C318.96 175.448 318.913 175.498 318.857 175.537L308.076 185.548L325.978 211.792C326.063 211.932 326.126 212.084 326.165 212.242C326.214 212.408 326.214 212.583 326.165 212.749C326.113 212.915 326.007 213.059 325.865 213.161C325.67 213.287 325.441 213.347 325.209 213.333H322.173C321.947 213.329 321.729 213.25 321.554 213.108C321.346 212.947 321.168 212.75 321.029 212.527L304.664 188.724L294.991 197.723V212.195C294.999 212.367 294.966 212.539 294.897 212.697C294.827 212.855 294.722 212.995 294.59 213.106C294.457 213.216 294.301 213.295 294.133 213.335C293.965 213.376 293.79 213.377 293.622 213.338H291.485C291.32 213.374 291.149 213.37 290.985 213.328C290.822 213.286 290.67 213.206 290.543 213.095C290.416 212.984 290.316 212.845 290.252 212.689C290.187 212.533 290.16 212.364 290.172 212.196V175.888C290.169 175.739 290.196 175.591 290.251 175.453C290.306 175.314 290.387 175.188 290.492 175.082C290.623 174.962 290.777 174.871 290.944 174.813C291.112 174.755 291.289 174.731 291.466 174.743H293.64C293.98 174.739 294.311 174.852 294.578 175.063C294.704 175.159 294.806 175.283 294.875 175.427C294.943 175.57 294.976 175.728 294.971 175.887V191.599L295.011 191.734Z" fill="#717171"/>
<path fill-rule="evenodd" clip-rule="evenodd" d="M139.859 126.812C133.63 124.973 127.68 122.198 122.221 118.55C111.576 111.438 103.28 101.328 98.3805 89.5006C93.4813 77.6728 92.1994 64.6579 94.697 52.1015C97.1946 39.5452 103.36 28.0115 112.412 18.9589C121.465 9.90624 132.998 3.7414 145.555 1.24379C158.111 -1.25382 171.126 0.0280466 182.954 4.92728C194.782 9.82652 204.891 18.1231 212.004 28.7678C219.116 39.4126 222.913 51.9274 222.913 64.7297C222.913 81.8971 216.093 98.3613 203.954 110.501C191.815 122.64 175.35 129.459 158.183 129.459C152.107 129.459 146.095 128.604 140.318 126.945C140.152 127.031 140.043 127.084 140 127.106L139.859 126.812ZM139.866 122.895C130.539 119.958 122.023 114.81 115.063 107.851C106.535 99.3222 100.727 88.4564 98.3739 76.6273C96.021 64.7982 97.2286 52.537 101.844 41.3943C106.46 30.2515 114.276 20.7275 124.304 14.0269C134.332 7.32624 146.122 3.74977 158.183 3.74977C174.356 3.74977 189.867 10.1745 201.303 21.6106C212.739 33.0467 219.164 48.5574 219.164 64.7305C219.164 76.7914 215.587 88.5814 208.887 98.6096C204.287 105.493 198.358 111.334 191.488 115.813C190.068 92.8738 174.208 76.5431 168.588 71.4407L170.463 70.2789C170.66 70.1576 170.854 70.0381 171.047 69.9199C171.718 69.5083 172.363 69.1123 172.975 68.7042C173.539 68.328 174.199 67.9234 174.873 67.5105C175.14 67.347 175.409 67.1822 175.675 67.0173L175.692 67.0067C181.313 63.5778 188.288 59.3231 185.047 51.2514L184.429 49.6396L171.306 53.5386C169.108 54.3225 166.741 54.51 164.446 54.082C161.884 53.7863 159.289 53.9771 156.797 54.6442C154.434 55.1829 152.225 56.194 150.294 57.5971C149.359 57.3093 147.969 56.8794 147.582 56.7484C152.183 55.1499 156.397 52.6014 159.949 49.2685C163.502 45.9356 166.314 41.8929 168.202 37.4027C170.071 32.8765 170.99 28.0145 170.902 23.1184L167.2 24.1636C167.15 27.2796 166.656 30.3725 165.734 33.3492C164.503 33.7577 163.163 33.6837 161.985 33.1423C159.59 31.6996 157.748 29.4948 156.755 26.8811L153.099 27.8375C153.775 29.5063 156.118 34.586 160.448 36.5359C161.464 36.9963 162.559 37.2572 163.673 37.3043H164.104C162.389 41.0374 159.904 44.3656 156.811 47.0703C146.932 47.3515 142.714 33.5735 141.946 30.762L138.324 31.7184C139.215 34.9945 140.519 38.1441 142.205 41.0912C144.348 45.3179 148.022 48.569 152.478 50.1828C149.35 52.0642 145.983 53.5146 142.468 54.4949C138.635 52.4908 135.293 49.6658 132.678 46.2213C130.063 42.7768 128.24 38.7978 127.34 34.5679L123.718 35.5243C124.393 38.9549 128.413 54.4477 147.136 60.5386C146.911 60.8053 146.694 61.0791 146.485 61.3599L128.227 58.5139L128.133 60.5948C128.097 62.166 128.415 63.7251 129.064 65.1563C129.713 66.5876 130.676 67.8542 131.882 68.862C134.642 70.9801 138.574 71.4674 143.636 70.3428C143.344 72.5673 143.615 74.8293 144.423 76.9222C144.981 78.1013 145.607 79.2468 146.298 80.3529C150.663 87.2336 152.912 95.2444 152.766 103.392C152.51 114.136 143.485 120.69 139.866 122.895ZM144.67 124.195C145.206 124.317 145.745 124.432 146.286 124.54C158.115 126.893 170.377 125.685 181.519 121.069C183.687 120.172 185.793 119.153 187.828 118.02C187.225 91.2406 164.556 72.8784 164.315 72.6938L162.44 71.1414L164.486 69.7064C165.815 68.7778 167.161 67.9557 168.474 67.1541L168.592 67.082C169.07 66.7905 169.473 66.5337 169.897 66.2636C170.236 66.0471 170.59 65.8219 171.006 65.5633C171.313 65.3729 171.62 65.1805 171.927 64.988C172.557 64.5929 173.187 64.1976 173.818 63.8194C181.447 59.1745 182.74 56.752 182.253 54.2587L171.962 57.3142C169.483 58.0566 166.87 58.2361 164.313 57.8395C162.115 57.6169 159.896 57.7753 157.752 58.3077C154.213 59.1234 151.128 61.2805 149.147 64.3249L146.242 65.0941L132.333 62.9191C132.402 63.0683 132.453 63.2256 132.483 63.3874C132.483 63.3874 133.532 69.6675 144.78 66.762L148.979 65.6936L147.967 68.3929C147.195 70.7047 147.195 73.2046 147.967 75.5164C148.438 76.5438 148.963 77.5451 149.542 78.5159C154.23 85.9897 156.646 94.6644 156.496 103.486C156.249 113.825 149.466 120.648 144.67 124.195Z" fill="#717171"/>
</svg>
